<svg width="64" height="64" viewBox="0 0 64 64" fill="none" xmlns="http://www.w3.org/2000/svg">
<rect x="1.5" y="1.5" width="61" height="61" rx="30.5" stroke="#E94343" stroke-width="3"/>
<path d="M19.94 18.368C19.94 17.48 20.156 16.82 20.588 16.388C21.044 15.932 21.716 15.704 22.604 15.704H41.396C42.26 15.704 42.92 15.932 43.376 16.388C43.832 16.82 44.06 17.48 44.06 18.368V26.18C44.06 27.044 43.832 27.704 43.376 28.16C42.944 28.616 42.284 28.844 41.396 28.844H22.604C21.74 28.844 21.08 28.628 20.624 28.196C20.168 27.74 19.94 27.068 19.94 26.18V18.368ZM41.036 18.62H22.964V25.928H41.036V18.62ZM16.16 34.892C16.16 34.052 16.376 33.416 16.808 32.984C17.264 32.528 17.924 32.3 18.788 32.3H27.644C28.484 32.3 29.12 32.516 29.552 32.948C30.008 33.38 30.236 34.028 30.236 34.892V44.576C30.236 45.416 30.02 46.052 29.588 46.484C29.156 46.94 28.508 47.168 27.644 47.168H18.788C17.948 47.168 17.3 46.952 16.844 46.52C16.388 46.088 16.16 45.44 16.16 44.576V34.892ZM27.356 35.216H19.04V44.252H27.356V35.216ZM33.764 34.892C33.764 34.052 33.98 33.416 34.412 32.984C34.868 32.528 35.516 32.3 36.356 32.3H45.248C46.088 32.3 46.724 32.516 47.156 32.948C47.612 33.38 47.84 34.028 47.84 34.892V44.576C47.84 45.416 47.624 46.052 47.192 46.484C46.76 46.94 46.112 47.168 45.248 47.168H36.356C35.516 47.168 34.868 46.952 34.412 46.52C33.98 46.088 33.764 45.44 33.764 44.576V34.892ZM44.96 35.216H36.644V44.252H44.96V35.216Z" fill="#E94343"/>
</svg>
