<svg width="64" height="64" viewBox="0 0 64 64" fill="none" xmlns="http://www.w3.org/2000/svg">
<path d="M45.716 16.64C46.652 16.64 47.12 17.108 47.12 18.044V18.188C47.12 19.148 46.652 19.628 45.716 19.628H18.32C17.384 19.628 16.916 19.148 16.916 18.188V18.044C16.916 17.108 17.384 16.64 18.32 16.64H45.716ZM46.976 43.676C47.912 43.676 48.38 44.156 48.38 45.116V45.26C48.38 46.196 47.912 46.664 46.976 46.664H17.024C16.088 46.664 15.62 46.196 15.62 45.26V45.116C15.62 44.156 16.088 43.676 17.024 43.676H46.976ZM33.404 18.116C34.364 18.116 34.844 18.596 34.844 19.556V43.784C34.844 44.744 34.364 45.224 33.404 45.224H33.26C32.3 45.224 31.82 44.744 31.82 43.784V19.556C31.82 18.596 32.3 18.116 33.26 18.116H33.404ZM22.316 26.072C23.276 26.072 23.756 26.552 23.756 27.512V43.784C23.756 44.744 23.276 45.224 22.316 45.224H22.172C21.236 45.224 20.768 44.744 20.768 43.784V27.512C20.768 26.552 21.236 26.072 22.172 26.072H22.316ZM44.312 28.736C45.248 28.736 45.716 29.204 45.716 30.14V30.284C45.716 31.22 45.248 31.688 44.312 31.688H34.916C33.98 31.688 33.512 31.22 33.512 30.284V30.14C33.512 29.204 33.98 28.736 34.916 28.736H44.312Z" fill="#E94343"/>
<path d="M59.5 32C59.5 16.8122 47.1878 4.5 32 4.5C16.8122 4.5 4.5 16.8122 4.5 32C4.5 47.1878 16.8122 59.5 32 59.5C47.1878 59.5 59.5 47.1878 59.5 32ZM62.5 32C62.5 48.8447 48.8447 62.5 32 62.5C15.1553 62.5 1.5 48.8447 1.5 32C1.5 15.1553 15.1553 1.5 32 1.5C48.8447 1.5 62.5 15.1553 62.5 32Z" fill="#E94343"/>
</svg>
