<svg width="64" height="64" viewBox="0 0 64 64" fill="none" xmlns="http://www.w3.org/2000/svg">
<path d="M28.328 36.98C28.328 36.14 28.544 35.504 28.976 35.072C29.432 34.616 30.092 34.388 30.956 34.388H44.24C45.08 34.388 45.716 34.604 46.148 35.036C46.604 35.468 46.832 36.116 46.832 36.98V44.576C46.832 45.416 46.616 46.052 46.184 46.484C45.752 46.94 45.104 47.168 44.24 47.168H30.956C30.116 47.168 29.468 46.952 29.012 46.52C28.556 46.088 28.328 45.44 28.328 44.576V36.98ZM43.88 37.196H31.316V44.324H43.88V37.196ZM18.608 26.036C19.496 26.036 20.168 26.264 20.624 26.72C21.08 27.152 21.308 27.824 21.308 28.736V44.036H22.784C23.72 44.036 24.188 44.516 24.188 45.476V45.62C24.188 46.604 23.708 47.096 22.748 47.096H21.056C20.168 47.096 19.496 46.868 19.04 46.412C18.584 45.956 18.356 45.272 18.356 44.36V29.06H16.628C15.668 29.06 15.188 28.58 15.188 27.62V27.476C15.188 26.516 15.668 26.036 16.628 26.036H18.608ZM36.32 24.2C37.208 24.488 37.484 25.064 37.148 25.928C35.996 28.76 34.4 31.328 32.36 33.632C30.344 35.936 28.052 37.82 25.484 39.284C24.692 39.764 24.068 39.596 23.612 38.78L23.54 38.636C23.324 38.228 23.252 37.88 23.324 37.592C23.42 37.28 23.672 36.992 24.08 36.728C26.576 35.288 28.724 33.536 30.524 31.472C32.324 29.384 33.608 27.224 34.376 24.992C34.736 24.128 35.336 23.84 36.176 24.128L36.32 24.2ZM18.716 15.452C19.604 15.02 20.252 15.236 20.66 16.1L23 20.816C23.432 21.68 23.216 22.316 22.352 22.724L22.208 22.796C21.344 23.228 20.696 23.012 20.264 22.148L17.96 17.432C17.528 16.568 17.732 15.932 18.572 15.524L18.716 15.452ZM47.084 27.332C47.972 27.332 48.416 27.776 48.416 28.664V28.808C48.416 29.696 47.972 30.14 47.084 30.14H25.628C24.74 30.14 24.296 29.696 24.296 28.808V28.664C24.296 27.776 24.74 27.332 25.628 27.332H47.084ZM30.704 14.912C31.616 14.912 32.072 15.368 32.072 16.28V23.588C32.072 24.5 31.616 24.956 30.704 24.956H30.56C29.648 24.956 29.192 24.5 29.192 23.588V16.28C29.192 15.368 29.648 14.912 30.56 14.912H30.704ZM46.724 18.548C47.636 18.548 48.092 18.992 48.092 19.88V20.024C48.092 20.912 47.636 21.356 46.724 21.356H25.988C25.076 21.356 24.62 20.912 24.62 20.024V19.88C24.62 18.992 25.076 18.548 25.988 18.548H46.724ZM42.224 14.912C43.136 14.912 43.592 15.368 43.592 16.28V23.588C43.592 24.5 43.136 24.956 42.224 24.956H42.08C41.168 24.956 40.712 24.5 40.712 23.588V16.28C40.712 15.368 41.168 14.912 42.08 14.912H42.224Z" fill="#E94343"/>
<path d="M59.5 32C59.5 16.8122 47.1878 4.5 32 4.5C16.8122 4.5 4.5 16.8122 4.5 32C4.5 47.1878 16.8122 59.5 32 59.5C47.1878 59.5 59.5 47.1878 59.5 32ZM62.5 32C62.5 48.8447 48.8447 62.5 32 62.5C15.1553 62.5 1.5 48.8447 1.5 32C1.5 15.1553 15.1553 1.5 32 1.5C48.8447 1.5 62.5 15.1553 62.5 32Z" fill="#E94343"/>
</svg>
