<svg width="53" height="24" viewBox="0 0 53 24" fill="none" xmlns="http://www.w3.org/2000/svg">
<path opacity="0.4" d="M3 1.67188H45C46.1046 1.67188 47 2.56731 47 3.67188V20.2949C46.9999 21.3994 46.1045 22.2949 45 22.2949H3C1.89547 22.2949 1.00005 21.3994 1 20.2949V3.67188C1 2.56731 1.89543 1.67188 3 1.67188Z" stroke="#333333" stroke-width="2"/>
<path fill-rule="evenodd" clip-rule="evenodd" d="M5 4.61133C4.44771 4.61133 4 5.05904 4 5.61133V18.3654C4 18.9177 4.44772 19.3654 5 19.3654H43C43.5523 19.3654 44 18.9177 44 18.3654V5.61133C44 5.05904 43.5523 4.61133 43 4.61133H5Z" fill="#333333"/>
<path opacity="0.4" fill-rule="evenodd" clip-rule="evenodd" d="M53 11.9737C53 13.7127 51.6961 15.1514 50 15.3907V8.55664C51.6961 8.79592 53 10.2346 53 11.9737Z" fill="#333333"/>
</svg>
