<svg width="32" height="32" viewBox="0 0 32 32" fill="none" xmlns="http://www.w3.org/2000/svg">
<path d="M21.7081 16.7081L11.7081 26.7081C11.6151 26.801 11.5048 26.8747 11.3835 26.9249C11.2621 26.9752 11.132 27.0011 11.0006 27.0011C10.8692 27.0011 10.7391 26.9752 10.6177 26.9249C10.4963 26.8747 10.386 26.801 10.2931 26.7081C10.2001 26.6151 10.1264 26.5048 10.0762 26.3835C10.0259 26.2621 10 26.132 10 26.0006C10 25.8692 10.0259 25.7391 10.0762 25.6177C10.1264 25.4963 10.2001 25.386 10.2931 25.2931L19.5868 16.0006L10.2931 6.70806C10.1054 6.52042 10 6.26592 10 6.00056C10 5.73519 10.1054 5.4807 10.2931 5.29306C10.4807 5.10542 10.7352 5 11.0006 5C11.2659 5 11.5204 5.10542 11.7081 5.29306L21.7081 15.2931C21.801 15.3859 21.8748 15.4962 21.9251 15.6176C21.9754 15.739 22.0013 15.8691 22.0013 16.0006C22.0013 16.132 21.9754 16.2621 21.9251 16.3835C21.8748 16.5049 21.801 16.6152 21.7081 16.7081Z" fill="#999999"/>
</svg>
