<svg width="34" height="21" viewBox="0 0 34 21" fill="none" xmlns="http://www.w3.org/2000/svg">
<path d="M5.18164 11.459C5.73381 11.459 6.18146 11.9069 6.18164 12.459V19.3115C6.18164 19.8638 5.73393 20.3115 5.18164 20.3115H1C0.447715 20.3115 0 19.8638 0 19.3115V12.459C0.000181936 11.9069 0.447828 11.459 1 11.459H5.18164ZM14.4541 8.50879C15.0064 8.50879 15.4541 8.9565 15.4541 9.50879V19.3115C15.4541 19.8638 15.0064 20.3115 14.4541 20.3115H10.2725C9.7203 20.3114 9.27246 19.8637 9.27246 19.3115V9.50879C9.27246 8.95659 9.7203 8.50893 10.2725 8.50879H14.4541ZM23.7275 4.57422C24.2797 4.57436 24.7275 5.02202 24.7275 5.57422V19.3115C24.7275 19.8637 24.2797 20.3114 23.7275 20.3115H19.5459C18.9936 20.3115 18.5459 19.8638 18.5459 19.3115V5.57422C18.5459 5.02193 18.9936 4.57422 19.5459 4.57422H23.7275ZM33 0.639648C33.5523 0.639648 34 1.08736 34 1.63965V19.3115C34 19.8638 33.5523 20.3115 33 20.3115H28.8184C28.2661 20.3115 27.8184 19.8638 27.8184 19.3115V1.63965C27.8184 1.08736 28.2661 0.639648 28.8184 0.639648H33Z" fill="#333333"/>
</svg>
