<svg width="40" height="40" viewBox="0 0 40 40" fill="none" xmlns="http://www.w3.org/2000/svg">
<path d="M27.1354 31.6163C27.2515 31.7325 27.3436 31.8703 27.4065 32.0221C27.4693 32.1738 27.5017 32.3365 27.5017 32.5007C27.5017 32.6649 27.4693 32.8276 27.4065 32.9793C27.3436 33.1311 27.2515 33.2689 27.1354 33.3851C27.0192 33.5012 26.8813 33.5933 26.7296 33.6562C26.5779 33.719 26.4152 33.7514 26.251 33.7514C26.0867 33.7514 25.9241 33.719 25.7724 33.6562C25.6206 33.5933 25.4827 33.5012 25.3666 33.3851L12.8666 20.8851C12.7504 20.769 12.6582 20.6311 12.5953 20.4794C12.5324 20.3276 12.5 20.165 12.5 20.0007C12.5 19.8364 12.5324 19.6738 12.5953 19.522C12.6582 19.3703 12.7504 19.2324 12.8666 19.1163L25.3666 6.61632C25.6012 6.38177 25.9193 6.25 26.251 6.25C26.5827 6.25 26.9008 6.38177 27.1354 6.61632C27.3699 6.85087 27.5017 7.16899 27.5017 7.50069C27.5017 7.8324 27.3699 8.15052 27.1354 8.38507L15.5182 20.0007L27.1354 31.6163Z" fill="var(-----icon-333, #333333)"/>
</svg>
