<svg width="48" height="48" viewBox="0 0 48 48" fill="none" xmlns="http://www.w3.org/2000/svg">
<path fill-rule="evenodd" clip-rule="evenodd" d="M27.9955 43.4122C19.416 45.7533 6.9473 43.3682 3.89139 32.4086C2.98505 21.1892 11.4457 22.9081 17.5855 15.6932C24.6025 5.58902 38.4 7.54175 41.6187 19.1601C43.7513 26.8582 39.4398 40.2895 27.9955 43.4122Z" fill="#FFB22F"/>
<path d="M41.7217 19.5602C43.601 27.3146 39.2443 40.3422 27.9959 43.4117C22.237 44.9831 14.7259 44.4251 9.48533 40.5737C11.2159 41.0982 13.0331 41.4556 14.9167 41.6204C28.5717 42.815 40.5403 33.5115 41.6488 20.8409C41.6863 20.4123 41.7097 19.9852 41.7217 19.5602Z" fill="#DF920F"/>
<path fill-rule="evenodd" clip-rule="evenodd" d="M21.0355 17.7892C21.3171 17.9781 21.3923 18.3595 21.2034 18.6412L20.6934 18.2991C21.2034 18.6412 21.2035 18.6411 21.2034 18.6412L21.2024 18.6427L21.2008 18.645L21.1959 18.6523L21.1789 18.6768C21.1645 18.6976 21.1439 18.7268 21.1172 18.7638C21.0637 18.8378 20.9858 18.9427 20.8845 19.0717C20.6819 19.3294 20.3847 19.6845 20.0009 20.0815C19.2365 20.872 18.1121 21.8457 16.6914 22.5375C16.3865 22.686 16.019 22.5591 15.8705 22.2542C15.722 21.9493 15.8489 21.5818 16.1538 21.4333C17.4037 20.8247 18.4146 19.9552 19.118 19.2278C19.4681 18.8657 19.7379 18.5431 19.9188 18.3128C20.0092 18.1978 20.0772 18.1061 20.1217 18.0446C20.1439 18.0138 20.1603 17.9905 20.1706 17.9757L20.1816 17.9598L20.1834 17.9571C20.3724 17.6756 20.7539 17.6003 21.0355 17.7892Z" fill="#964212"/>
<path opacity="0.5" fill-rule="evenodd" clip-rule="evenodd" d="M31.173 13.2705C31.3726 12.8025 31.9137 12.5849 32.3816 12.7845L32.0203 13.6318C32.3816 12.7845 32.3819 12.7846 32.3823 12.7848L32.383 12.7851L32.3848 12.7858L32.3894 12.7878L32.4028 12.7937L32.4462 12.8131C32.4822 12.8295 32.5321 12.8528 32.5942 12.883C32.7181 12.9434 32.891 13.032 33.0977 13.1492C33.5096 13.3829 34.0643 13.7353 34.6366 14.2125C35.7687 15.1565 37.0573 16.6649 37.317 18.7806C37.379 19.2855 37.02 19.7451 36.515 19.8071C36.0101 19.8691 35.5505 19.51 35.4885 19.0051C35.3088 17.5412 34.4061 16.419 33.4568 15.6274C32.9885 15.2368 32.5299 14.9451 32.1888 14.7516C32.019 14.6553 31.8804 14.5845 31.787 14.539C31.7404 14.5163 31.7052 14.4999 31.6832 14.4899L31.6605 14.4797L31.659 14.4791C31.6588 14.479 31.6586 14.4789 31.6584 14.4788M31.173 13.2705C30.9735 13.7382 31.1909 14.2791 31.6584 14.4788L31.173 13.2705Z" fill="url(#paint0_linear_1714_20111)"/>
<defs>
<linearGradient id="paint0_linear_1714_20111" x1="28.7991" y1="17.0922" x2="36.2252" y2="21.7666" gradientUnits="userSpaceOnUse">
<stop stop-color="white"/>
<stop offset="1" stop-color="white" stop-opacity="0.01"/>
</linearGradient>
</defs>
</svg>
